# xmcd
# 
# Track frame offsets:
#     182
#     22852
#     46455
#     68017
#     87860
#     107327
#     128275
#     150115
#     174962
#     195495
#     218065
#     234862
# 
# Disc length: 3360
# 
# Revision: 4
# Processed by: cddbd v1.5.2PL0 Copyright (c) Steve Scherf et al.
# Submitted via: fre:ac v1.0.31
# 
DISCID=790d1e0c
DTITLE=Emmylou Harris - Red Dirt Girl
DYEAR=2000
DGENRE=Country
TTITLE0=The Pearl
TTITLE1=Michelangelo
TTITLE2=I Don't Wanna Talk About It Now
TTITLE3=Tragedy
TTITLE4=Red Dirt Girl
TTITLE5=My Baby Needs a Shepherd
TTITLE6=Bang the Drum Slowly
TTITLE7=J'ai Fait Tout
TTITLE8=One Big Love
TTITLE9=Hour of Gold
TTITLE10=My Antonia
TTITLE11=Boy from Tupelo
EXTD=Nonesuch\n79616-2\nProduced by Malcolm Burn
EXTT0=
EXTT1=
EXTT2=
EXTT3=Harmony vocal by Bruce Springsteen.
EXTT4=
EXTT5=Harmony vocal by Patty Griffin.
EXTT6=Harmony vocal by Daryl Johnson.
EXTT7=Harmony vocals by Jill Cunniff and Daryl Johnson.
EXTT8=Harmony vocals by Malcolm Burn, Jill Cunniff and Julie Miller.
EXTT9=Harmony vocal by Patty Griffin.
EXTT10=Featuring Dave Matthews.
EXTT11=Harmony vocals by Kate McGarrigle and Julie Miller.
PLAYORDER=
